<svg xmlns="http://www.w3.org/2000/svg" viewBox="0 0 1920 1920">
    <style>
        .st0{fill:#fff}.st1{fill:none;stroke:#231f20;stroke-width:50;stroke-linecap:round;stroke-linejoin:round;stroke-miterlimit:10}
    </style>
    <path class="st0" d="M1479.3 996.3c-46.4-46.9-75.3-111.5-137.2-173.5-7.7-7.7-16-15.4-24.8-23.1-147.3-126.6-409.4-105.2-509.5-45.6-100.1 59.6-146.5 42.3-146.5 42.3S680 741.8 680 684c0-5.6-.2-11.3-.6-16.9l-61.8-9.5 37.8-64.9c-3-4.1-6.3-7.9-10-11.5-11.1-10.8-25.4-19.3-43.7-24.5l-38 52.6-23-57.6c-12.6.9-26.2 2.7-41 5.7 0 0-15.9 260-50 286.8 0 0-54-7.9-113.1-7.9-43.7 0-90.2 4.3-119.6 19.4 0 0 171.6 9.7 207.9 36.3 0 0-12.4 70.6-90.2 60.1 0 0 3.9 9 3.9 22.2 0 11-2.7 24.9-12.8 39 0 0-22.7 25.6-22.7 48.1 0 6.9 2.1 13.6 7.8 19.1 4.9 4.9 12.6 8.9 23.8 11.5v-.9c0-5.3 1.4-31.1 29.2-32.7 0 0 5.3 8.8 14.8 18.5 19.8 20.1 58 43.7 105.2-1 8.1-2.2 30.9 25.8 92.8-10.3 61.8-36.1 109.7-56.7 165.7-10.3l21.3 5c-3 39-11.8 113.5-35 125.9l-38.3 27.1h90.7l65.2-118.6 36.8 61.5s2.4 11.2 2.4 25.6c0 20.5-4.8 47.6-28.1 58.4 0 0 48.9-4.1 91.3-14.8 14-3.5 19.3-17.3 19.3-36 0-32.5-16-79.9-29.2-113.5 29.1 11.9 59.8 16 88 16 59.7 0 108.4-18.1 108.6-18.2 0 .2-2.5 107.5-40.2 124l68.8 15.6c-12 13.2-23 22.8-23 22.8h96.7l22.5-100.4c-.9-.7-1.8-1.5-2.6-2.3-16.9-16.6-19-47.9-19-62.3 0-4.7.2-7.5.2-7.5 75-32.7 131-6.8 131-6.8 171.9 105.1 333.7 7.4 333.7 7.4-119.9 5.3-180-23.2-224.2-67.9z" id="Layer_6"/>
    <g id="STROKES">
        <path class="st1" d="M601.7 556.8c24.4 6.9 41.7 19.7 53.7 36"/>
        <path class="st1" d="M363.8 1058.4c-31 1.8-29.2 33.6-29.2 33.6-65.5-15-8.8-78.7-8.8-78.7 22.1-31 8.8-61.1 8.8-61.1 77.9 10.5 90.2-60.1 90.2-60.1-36.3-26.5-207.9-36.3-207.9-36.3 29.4-15.1 75.9-19.4 119.6-19.4 59.1 0 113.1 7.9 113.1 7.9 34.2-26.8 50-286.8 50-286.8 14.8-3 28.4-4.8 41-5.7"/>
        <path class="st1" d="M679.4 667.1c4.4 63.4-18.2 129.3-18.2 129.3s46.4 17.4 146.5-42.3c100.1-59.6 362.2-81 509.5 45.7 147.3 126.6 125.2 276.1 385.8 264.3 0 0-161.8 97.6-333.7-7.4 0 0-55.9-25.9-131 6.8 0 0-3.9 51.5 21.4 72.2l-22.5 100.4h-96.7s11-9.6 23-22.8c16.1-17.7 33.9-41.8 29.6-57.9-7.5-28.2-58.2-81.6-58.2-81.6s-105.8 39.3-196.6 2.2c-.2-.1-.4-.2-.6-.2"/>
        <path class="st1" d="M829.1 955.1c56.7 20.6 92 80.3 92 80.3s8 16.8 17.3 40.5c20.8 52.8 48.5 139.7 10 149.4-42.4 10.7-91.3 14.8-91.3 14.8 39.8-18.4 25.8-84 25.8-84l-36.8-61.5-10.3-17.3-72.2-17.1-21.3-5c-56-46.4-103.8-25.8-165.7 10.3-61.8 36.1-84.7 8.1-92.8 10.3-69.9 66.3-120-17.5-120-17.5"/>
        <path class="st1" d="M1088.1 797.9c-9.4 183.9 46.9 275.9 46.9 275.9s-2.4 107.4-40.2 124l68.8 15.6"/>
        <path class="st1" d="M1238.4 1063.5V1008l73-101.3"/>
        <path class="st1" d="M661.3 796.4s-34.4 85.6-87.2 103.9"/>
        <path class="st1" d="M483.8 1075.9L529 1011"/>
        <path class="st1" d="M763.6 1060.3c-3 39-11.8 113.5-35 125.9l-38.3 27.1H781l65.2-118.6"/>
        <path class="st1" d="M540.7 551.8l23 57.6 38-52.6"/>
        <path class="st1" d="M655.4 592.8l-37.7 64.9 61.7 9.4"/>
    </g>
</svg>
